<?xml version="1.0" encoding="UTF-8" standalone="no"?>
<!-- Generator: Adobe Illustrator 18.0.0, SVG Export Plug-In . SVG Version: 6.00 Build 0)  -->

<svg
   xmlns:dc="http://purl.org/dc/elements/1.1/"
   xmlns:cc="http://creativecommons.org/ns#"
   xmlns:rdf="http://www.w3.org/1999/02/22-rdf-syntax-ns#"
   xmlns:svg="http://www.w3.org/2000/svg"
   xmlns="http://www.w3.org/2000/svg"
   xmlns:sodipodi="http://sodipodi.sourceforge.net/DTD/sodipodi-0.dtd"
   xmlns:inkscape="http://www.inkscape.org/namespaces/inkscape"
   version="1.1"
   id="Capa_1"
   x="0px"
   y="0px"
   viewBox="0 0 116.566 116.566"
   xml:space="preserve"
   sodipodi:docname="back.svg"
   inkscape:version="0.92.4 (5da689c313, 2019-01-14)"
   width="116.566"
   height="116.56599"><metadata
   id="metadata43"><rdf:RDF><cc:Work
       rdf:about=""><dc:format>image/svg+xml</dc:format><dc:type
         rdf:resource="http://purl.org/dc/dcmitype/StillImage" /><dc:title></dc:title></cc:Work></rdf:RDF></metadata><defs
   id="defs41">
	
	
</defs><sodipodi:namedview
   pagecolor="#ffffff"
   bordercolor="#666666"
   borderopacity="1"
   objecttolerance="10"
   gridtolerance="10"
   guidetolerance="10"
   inkscape:pageopacity="0"
   inkscape:pageshadow="2"
   inkscape:window-width="1280"
   inkscape:window-height="657"
   id="namedview39"
   showgrid="false"
   inkscape:zoom="1.0768831"
   inkscape:cx="-235.82858"
   inkscape:cy="58.284296"
   inkscape:window-x="-8"
   inkscape:window-y="-8"
   inkscape:window-maximized="1"
   inkscape:current-layer="Capa_1"
   fit-margin-top="9.15719"
   fit-margin-left="0"
   fit-margin-right="0"
   fit-margin-bottom="9.157191"
   width="116.566px" />
<path
   inkscape:connector-curvature="0"
   id="path4"
   d="m 43.825,105.21318 c 2.929,2.928 7.678,2.927 10.606,0 2.93,-2.93 2.93,-7.678003 -10e-4,-10.608003 l -28.82,-28.818986 83.457,-0.008 c 4.142,-0.001 7.499,-3.358 7.499,-7.502 -0.001,-4.142 -3.358,-7.498 -7.5,-7.498 l -83.46,0.008 28.827,-28.825 c 2.929,-2.929001 2.929,-7.679001 0,-10.607001 -1.465,-1.464 -3.384,-2.197 -5.304,-2.197 -1.919,0 -3.838,0.733 -5.303,2.196 L 2.197,52.981191 c -1.407,1.406 -2.197,3.313 -2.197,5.303 0.001,1.99 0.791,3.896 2.198,5.305 z"
   style="fill:#888888;fill-opacity:1" />
<g
   id="g8"
   transform="translate(-51.036,-51.293807)">
</g>
<g
   id="g10"
   transform="translate(-51.036,-51.293807)">
</g>
<g
   id="g12"
   transform="translate(-51.036,-51.293807)">
</g>
<g
   id="g14"
   transform="translate(-51.036,-51.293807)">
</g>
<g
   id="g16"
   transform="translate(-51.036,-51.293807)">
</g>
<g
   id="g18"
   transform="translate(-51.036,-51.293807)">
</g>
<g
   id="g20"
   transform="translate(-51.036,-51.293807)">
</g>
<g
   id="g22"
   transform="translate(-51.036,-51.293807)">
</g>
<g
   id="g24"
   transform="translate(-51.036,-51.293807)">
</g>
<g
   id="g26"
   transform="translate(-51.036,-51.293807)">
</g>
<g
   id="g28"
   transform="translate(-51.036,-51.293807)">
</g>
<g
   id="g30"
   transform="translate(-51.036,-51.293807)">
</g>
<g
   id="g32"
   transform="translate(-51.036,-51.293807)">
</g>
<g
   id="g34"
   transform="translate(-51.036,-51.293807)">
</g>
<g
   id="g36"
   transform="translate(-51.036,-51.293807)">
</g>
</svg>