<?xml version="1.0" encoding="UTF-8" standalone="no"?>
<!-- Created with Inkscape (http://www.inkscape.org/) -->

<svg
   xmlns:dc="http://purl.org/dc/elements/1.1/"
   xmlns:cc="http://creativecommons.org/ns#"
   xmlns:rdf="http://www.w3.org/1999/02/22-rdf-syntax-ns#"
   xmlns:svg="http://www.w3.org/2000/svg"
   xmlns="http://www.w3.org/2000/svg"
   xmlns:sodipodi="http://sodipodi.sourceforge.net/DTD/sodipodi-0.dtd"
   xmlns:inkscape="http://www.inkscape.org/namespaces/inkscape"
   width="391"
   height="391"
   viewBox="0 0 391 391"
   version="1.1"
   id="SVGRoot"
   inkscape:version="0.92.4 (5da689c313, 2019-01-14)"
   sodipodi:docname="Chats2.svg">
  <defs
     id="defs10" />
  <sodipodi:namedview
     id="base"
     pagecolor="#ffffff"
     bordercolor="#666666"
     borderopacity="1.0"
     inkscape:pageopacity="0.0"
     inkscape:pageshadow="2"
     inkscape:zoom="1.01"
     inkscape:cx="200.5"
     inkscape:cy="150.10396"
     inkscape:document-units="px"
     inkscape:current-layer="layer1"
     showgrid="true"
     inkscape:window-width="1280"
     inkscape:window-height="657"
     inkscape:window-x="-8"
     inkscape:window-y="-8"
     inkscape:window-maximized="1"
     fit-margin-top="0"
     fit-margin-left="0"
     fit-margin-right="0"
     fit-margin-bottom="0">
    <inkscape:grid
       type="xygrid"
       id="grid32"
       originx="-49.5"
       originy="-139.5" />
  </sodipodi:namedview>
  <metadata
     id="metadata13">
    <rdf:RDF>
      <cc:Work
         rdf:about="">
        <dc:format>image/svg+xml</dc:format>
        <dc:type
           rdf:resource="http://purl.org/dc/dcmitype/StillImage" />
        <dc:title></dc:title>
      </cc:Work>
    </rdf:RDF>
  </metadata>
  <g
     inkscape:label="Layer 1"
     inkscape:groupmode="layer"
     id="layer1"
     transform="translate(-49.5,30.5)">
    <path
       style="fill:#888888;fill-opacity:1;stroke:#000000;stroke-opacity:0"
       d="m 60,30 c -5.54,0 -10,4.46 -10,10 l 69.2832,120 H 120 v 96.03906 C 120,274.85312 134.96981,290 153.56445,290 h 252.8711 C 425.0302,290 440,274.85312 440,256.03906 V 63.96094 C 440,45.14688 425.0302,30 406.43555,30 H 160 153.56445 Z m 120,60 h 200 c 5.54,0 10,6.47012 10,14.50586 v 0.98828 C 390,113.52988 385.54,120 380,120 H 180 c -5.54,0 -10,-6.47012 -10,-14.50586 v -0.98828 C 170,96.47012 174.46,90 180,90 Z m 0,60 h 200 c 5.54,0 10,6.49152 10,14.55469 v 0.89062 C 390,173.50848 385.54,180 380,180 H 180 c -5.54,0 -10,-6.49152 -10,-14.55469 v -0.89062 C 170,156.49152 174.46,150 180,150 Z m 0,60 h 110 c 5.54,0 10,6.47012 10,14.50586 v 0.98828 C 300,233.52988 295.54,240 290,240 H 180 c -5.54,0 -10,-6.47012 -10,-14.50586 v -0.98828 C 170,216.47012 174.46,210 180,210 Z"
       id="rect30"
       inkscape:connector-curvature="0" />
  </g>
</svg>
