<?xml version="1.0" encoding="UTF-8" standalone="no"?>
<!-- Created with Inkscape (http://www.inkscape.org/) -->

<svg
   xmlns:dc="http://purl.org/dc/elements/1.1/"
   xmlns:cc="http://creativecommons.org/ns#"
   xmlns:rdf="http://www.w3.org/1999/02/22-rdf-syntax-ns#"
   xmlns:svg="http://www.w3.org/2000/svg"
   xmlns="http://www.w3.org/2000/svg"
   xmlns:sodipodi="http://sodipodi.sourceforge.net/DTD/sodipodi-0.dtd"
   xmlns:inkscape="http://www.inkscape.org/namespaces/inkscape"
   width="419.99994"
   height="419.99899"
   viewBox="0 0 419.99994 419.99899"
   version="1.1"
   id="SVGRoot"
   inkscape:version="0.92.4 (5da689c313, 2019-01-14)"
   sodipodi:docname="Chats.svg"
   inkscape:export-filename="C:\Users\DNC\Desktop\drawing.png"
   inkscape:export-xdpi="96"
   inkscape:export-ydpi="96">
  <defs
     id="defs66" />
  <sodipodi:namedview
     id="base"
     pagecolor="#ffffff"
     bordercolor="#666666"
     borderopacity="1.0"
     inkscape:pageopacity="0.0"
     inkscape:pageshadow="2"
     inkscape:zoom="0.92"
     inkscape:cx="-84.882282"
     inkscape:cy="229.96981"
     inkscape:document-units="px"
     inkscape:current-layer="layer1"
     showgrid="true"
     inkscape:window-width="1280"
     inkscape:window-height="657"
     inkscape:window-x="-8"
     inkscape:window-y="-8"
     inkscape:window-maximized="1"
     showguides="false"
     inkscape:pagecheckerboard="false"
     fit-margin-top="0"
     fit-margin-left="0"
     fit-margin-right="0"
     fit-margin-bottom="0">
    <inkscape:grid
       type="xygrid"
       id="grid15"
       originx="-40.000957"
       originy="-40.000466" />
  </sodipodi:namedview>
  <metadata
     id="metadata69">
    <rdf:RDF>
      <cc:Work
         rdf:about="">
        <dc:format>image/svg+xml</dc:format>
        <dc:type
           rdf:resource="http://purl.org/dc/dcmitype/StillImage" />
        <dc:title></dc:title>
      </cc:Work>
    </rdf:RDF>
  </metadata>
  <g
     inkscape:label="Layer 1"
     inkscape:groupmode="layer"
     id="layer1"
     style="display:inline"
     transform="translate(-40.000957,-40.000551)">
    <path
       style="opacity:1;fill:#888888;fill-opacity:1"
       d="M 258.7207,40.181641 A 210,210 0 0 0 237.73047,40.359375 210,210 0 0 0 40.253906,260.30469 210,210 0 0 0 258.33789,459.83398 210,210 0 0 0 459.9043,243.63086 l -0.38672,-7.86719 A 210,210 0 0 0 258.7207,40.181641 Z M 250,110 A 140,140 0 0 1 390,250 V 360 H 336.55859 A 140,140 0 0 1 250,390 140,140 0 0 1 110,250 140,140 0 0 1 250,110 Z"
       id="path19"
       inkscape:connector-curvature="0" />
    <rect
       style="opacity:1;fill:#888888;fill-opacity:1"
       id="rect3736"
       width="220"
       height="20"
       x="140"
       y="200"
       ry="10" />
    <rect
       style="display:inline;opacity:1;fill:#888888;fill-opacity:1"
       id="rect3736-5"
       width="220"
       height="20"
       x="140"
       y="240"
       ry="10" />
    <rect
       style="display:inline;opacity:1;fill:#888888;fill-opacity:1"
       id="rect3736-0"
       width="220"
       height="20"
       x="140"
       y="280"
       ry="10" />
  </g>
</svg>
