<?xml version="1.0" encoding="UTF-8" standalone="no"?>
<!-- Created with Inkscape (http://www.inkscape.org/) -->

<svg
   xmlns:dc="http://purl.org/dc/elements/1.1/"
   xmlns:cc="http://creativecommons.org/ns#"
   xmlns:rdf="http://www.w3.org/1999/02/22-rdf-syntax-ns#"
   xmlns:svg="http://www.w3.org/2000/svg"
   xmlns="http://www.w3.org/2000/svg"
   xmlns:sodipodi="http://sodipodi.sourceforge.net/DTD/sodipodi-0.dtd"
   xmlns:inkscape="http://www.inkscape.org/namespaces/inkscape"
   width="336.24414"
   height="337.62079"
   viewBox="0 0 88.9646 89.32884"
   version="1.1"
   id="svg847"
   inkscape:version="0.92.4 (5da689c313, 2019-01-14)"
   sodipodi:docname="emoji2.svg">
  <defs
     id="defs841" />
  <sodipodi:namedview
     id="base"
     pagecolor="#ffffff"
     bordercolor="#666666"
     borderopacity="1.0"
     inkscape:pageopacity="0.0"
     inkscape:pageshadow="2"
     inkscape:zoom="1.4"
     inkscape:cx="108.93854"
     inkscape:cy="192.11493"
     inkscape:document-units="mm"
     inkscape:current-layer="layer1"
     showgrid="false"
     units="px"
     inkscape:pagecheckerboard="true"
     inkscape:window-width="1280"
     inkscape:window-height="657"
     inkscape:window-x="-8"
     inkscape:window-y="-8"
     inkscape:window-maximized="1"
     fit-margin-top="0"
     fit-margin-left="0"
     fit-margin-right="0"
     fit-margin-bottom="0">
    <inkscape:grid
       type="xygrid"
       id="grid1402"
       originx="4.1577386"
       originy="0.3779784" />
  </sodipodi:namedview>
  <metadata
     id="metadata844">
    <rdf:RDF>
      <cc:Work
         rdf:about="">
        <dc:format>image/svg+xml</dc:format>
        <dc:type
           rdf:resource="http://purl.org/dc/dcmitype/StillImage" />
        <dc:title />
      </cc:Work>
    </rdf:RDF>
  </metadata>
  <g
     inkscape:label="Layer 1"
     inkscape:groupmode="layer"
     id="layer1"
     transform="translate(4.1577386,-208.049)">
    <path
       style="fill:#888888;fill-opacity:1;stroke-width:0.34773803"
       d="m 40.184432,203.97229 c -0.371692,0.009 -0.74327,0.0219 -1.114661,0.0393 0.392525,-0.009 0.785199,-0.0176 1.179256,-0.0176 0.176345,0 0.351573,0.006 0.527616,0.008 -0.197342,-0.011 -0.394749,-0.0209 -0.592211,-0.0295 z m -2.070674,0.0734 c -0.682157,0.0296 -1.362033,0.0716 -2.038636,0.12919 0.678567,-0.0573 1.358262,-0.10039 2.038636,-0.12919 z m 6.649206,0.15607 c 0.217591,0.0201 0.43365,0.0468 0.650605,0.0698 -0.21671,-0.0247 -0.433583,-0.048 -0.650605,-0.0698 z m -12.189954,0.39842 c -0.4143,0.0648 -0.827746,0.13487 -1.240235,0.21032 0.411713,-0.0762 0.825664,-0.14457 1.240235,-0.21032 z m 17.147791,0.32195 c 0.08657,0.0171 0.172984,0.0346 0.259416,0.0522 -0.08642,-0.0176 -0.172897,-0.035 -0.259416,-0.0522 z m -21.811589,0.65628 c -0.503818,0.13182 -1.005488,0.27171 -1.504817,0.41962 0.498848,-0.14762 1.000434,-0.28788 1.504817,-0.41962 z m -4.565612,1.43713 c -0.528146,0.19541 -1.053164,0.39837 -1.573549,0.61184 0.52094,-0.21303 1.045535,-0.417 1.573549,-0.61184 z m 16.905427,1.21181 c -13.73505,0 -26.489992,6.27168 -34.884692,16.93333 H 75.135786 C 66.736856,214.49901 53.981958,208.22733 40.249027,208.22733 Z m -21.324279,0.67334 c -0.61464,0.29977 -1.220862,0.61605 -1.822111,0.94155 0.600691,-0.32661 1.208196,-0.64053 1.822111,-0.94155 z m -4.006991,2.1947 c -0.758205,0.46303 -1.503541,0.94741 -2.236039,1.45211 0.73195,-0.50436 1.477576,-0.98858 2.236039,-1.45211 z m -3.630786,2.44895 c -1.139785,0.8463 -2.2431666,1.74593 -3.3093579,2.69337 1.0632273,-0.94572 2.1674059,-1.84438 3.3093579,-2.69337 z m -3.3093579,2.69337 c -0.357342,0.3176 -0.709985,0.64044 -1.057817,0.96842 0.348227,-0.3283 0.700817,-0.65118 1.057817,-0.96842 z m -1.057817,0.96842 c -0.642572,0.6058 -1.2701051,1.22998 -1.8815391,1.87275 0.61004,-0.64124 1.2374531,-1.26572 1.8815391,-1.87275 z m -1.8815391,1.87275 c -1.838207,1.88783 -3.520115,3.92177 -5.02915027,6.0818 h 0.1033529 C 1.604231,222.98465 3.253852,220.95475 5.038257,219.07888 Z m -7.1225624,10.31513 c -0.1818617,0 -0.3574889,0.0253 -0.5260663,0.0687 -0.5712627,1.07747 -1.1018371,2.17602 -1.5906004,3.29333 v 19.92127 c 0,3.50097 2.8490299,6.35 6.3500001,6.35 h 21.166666 c 3.500961,0 6.35,-2.84903 6.35,-6.35 v -6.35 c 0,-2.33468 1.898653,-4.23334 4.233333,-4.23334 h 12.7 c 2.334681,0 4.233333,1.89866 4.233333,4.23334 v 6.35 c 0,3.50097 2.849042,6.35 6.35,6.35 h 21.166667 c 3.500969,0 6.35,-2.84903 6.35,-6.35 v -19.58485 c -0.54441,-1.24799 -1.140936,-2.47259 -1.788004,-3.67058 -0.107434,-0.0169 -0.21653,-0.0279 -0.328663,-0.0279 z m 35.9833324,16.93334 v 6.35 c 0,5.83565 -4.747683,10.58333 -10.583333,10.58333 H 2.149028 c -1.98967017,0 -3.8291279,-0.58421 -5.420858,-1.54306 4.18888013,20.18876 22.108657,35.40974 43.520857,35.40974 21.4122,0 39.331976,-15.22098 43.520857,-35.40974 -1.591731,0.95885 -3.431188,1.54306 -5.420857,1.54306 H 57.18236 c -5.83565,0 -10.583333,-4.74768 -10.583333,-10.58333 v -6.35 z m -42.3333325,5.03843 c -0.027234,0.42964 -0.048768,0.85963 -0.064596,1.28984 0.021626,0.47547 0.050223,0.9506 0.085783,1.42524 -0.013497,-0.46636 -0.021187,-0.93395 -0.021187,-1.40353 z m 0.021187,2.71508 c 0.029838,1.03099 0.092194,2.05438 0.1855184,3.06855 -0.094127,-1.02064 -0.1559968,-2.044 -0.1855184,-3.06855 z m 0.1855184,3.06855 c 0.043591,0.4777 0.094239,0.95472 0.1519287,1.43092 -0.057675,-0.47497 -0.1078539,-0.95196 -0.1519287,-1.43092 z m 0.199471,1.82366 c 0.15294,1.17919 0.3473477,2.34553 0.5834269,3.49694 -0.2368683,-1.15818 -0.4314729,-2.3246 -0.5834269,-3.49694 z m 0.9327596,5.05447 c 0.2464931,1.02813 0.523305,2.04452 0.8340576,3.04633 -0.3108943,-1.00616 -0.5890599,-2.02213 -0.8340576,-3.04633 z m 1.3895793,4.71857 c 0.3498363,0.99754 0.7291512,1.98129 1.1410156,2.94816 -0.4121532,-0.97011 -0.7926923,-1.95335 -1.1410156,-2.94816 z m 65.0895662,2.98173 c 0.473842,0.0192 0.944594,0.19727 1.327052,0.53898 0.86995,0.77896 0.943776,2.11691 0.164846,2.98898 -5.217589,5.82718 -12.733597,9.17154 -20.626647,9.17154 -7.89093,0 -15.409574,-3.34225 -20.627165,-9.17154 -0.778928,-0.87207 -0.706694,-2.21002 0.165365,-2.98898 0.872072,-0.78105 2.209508,-0.70458 2.988447,0.16537 4.415361,4.93395 10.784684,7.76181 17.473353,7.76181 6.688669,0 13.057476,-2.82786 17.472834,-7.76181 0.438156,-0.49054 1.052693,-0.72896 1.661915,-0.70435 z m -63.2901929,1.43817 c 0.5122667,1.09953 1.0645024,2.17646 1.6546793,3.22977 -0.5915077,-1.05565 -1.1434509,-2.13299 -1.6546793,-3.22977 z m 2.1580078,4.10723 c 0.6761834,1.15015 1.3972452,2.27047 2.16265863,3.35794 -0.76651763,-1.08926 -1.48801093,-2.20951 -2.16265863,-3.35794 z m 2.53059483,3.87263 c 0.80620387,1.11453 1.65744687,2.19445 2.55281587,3.23546 -0.896227,-1.04197 -1.747929,-2.12142 -2.55281587,-3.23546 z m 3.10575387,3.86487 c 0.827903,0.93001 1.689982,1.82814 2.5858885,2.69235 -0.8960675,-0.86406 -1.7586635,-1.76217 -2.5858885,-2.69235 z m 3.8436935,3.86438 c 0.685509,0.61642 1.3891783,1.21277 2.1089153,1.79006 -0.719785,-0.57659 -1.4230413,-1.17352 -2.1089153,-1.79006 z m 4.1708039,3.35743 c 0.502204,0.36091 1.01188,0.71162 1.528072,1.05367 -0.516007,-0.34148 -1.025457,-0.69277 -1.528072,-1.05367 z m 4.464844,2.85408 c 0.295414,0.16726 0.59257,0.33143 0.891418,0.49247 -0.299129,-0.16094 -0.596062,-0.32549 -0.891418,-0.49247 z m 4.69842,2.33164 c 0.0886,0.039 0.177307,0.0778 0.266134,0.11626 -0.08926,-0.0378 -0.177149,-0.078 -0.266134,-0.11626 z"
       id="path1422"
       inkscape:connector-curvature="0"
       sodipodi:nodetypes="ccscccccccccccccccccccccccccccccccccccccccccccccsccssssssssssssccsscssscscssscccccscccccccccccccccccccscccscccccccccccccccccccccccccc" />
  </g>
</svg>
