<?xml version="1.0" encoding="UTF-8" standalone="no"?>
<svg
   xmlns:dc="http://purl.org/dc/elements/1.1/"
   xmlns:cc="http://creativecommons.org/ns#"
   xmlns:rdf="http://www.w3.org/1999/02/22-rdf-syntax-ns#"
   xmlns:svg="http://www.w3.org/2000/svg"
   xmlns="http://www.w3.org/2000/svg"
   xmlns:sodipodi="http://sodipodi.sourceforge.net/DTD/sodipodi-0.dtd"
   xmlns:inkscape="http://www.inkscape.org/namespaces/inkscape"
   width="32"
   height="32"
   version="1.1"
   id="svg843"
   sodipodi:docname="hamburger.svg"
   inkscape:version="0.92.4 (5da689c313, 2019-01-14)">
  <metadata
     id="metadata849">
    <rdf:RDF>
      <cc:Work
         rdf:about="">
        <dc:format>image/svg+xml</dc:format>
        <dc:type
           rdf:resource="http://purl.org/dc/dcmitype/StillImage" />
        <dc:title></dc:title>
      </cc:Work>
    </rdf:RDF>
  </metadata>
  <defs
     id="defs847" />
  <sodipodi:namedview
     pagecolor="#ffffff"
     bordercolor="#666666"
     borderopacity="1"
     objecttolerance="10"
     gridtolerance="10"
     guidetolerance="10"
     inkscape:pageopacity="0"
     inkscape:pageshadow="2"
     inkscape:window-width="1280"
     inkscape:window-height="657"
     id="namedview845"
     showgrid="false"
     inkscape:zoom="15.25"
     inkscape:cx="16"
     inkscape:cy="16"
     inkscape:window-x="-8"
     inkscape:window-y="-8"
     inkscape:window-maximized="1"
     inkscape:current-layer="svg843" />
  <g
     id="g836">
    <title
       id="title833">background</title>
    <rect
       fill="none"
       id="canvas_background"
       height="402"
       width="582"
       y="-1"
       x="-1" />
  </g>
  <g
     id="g841"
     style="fill:#888888;fill-opacity:1">
    <title
       id="title838">Layer 1</title>
    <path
       id="svg_1"
       d="m4,10l24,0c1.104,0 2,-0.896 2,-2s-0.896,-2 -2,-2l-24,0c-1.104,0 -2,0.896 -2,2s0.896,2 2,2zm24,4l-24,0c-1.104,0 -2,0.896 -2,2s0.896,2 2,2l24,0c1.104,0 2,-0.896 2,-2s-0.896,-2 -2,-2zm0,8l-24,0c-1.104,0 -2,0.896 -2,2s0.896,2 2,2l24,0c1.104,0 2,-0.896 2,-2s-0.896,-2 -2,-2z"
       style="fill:#888888;fill-opacity:1" />
  </g>
</svg>
