<?xml version="1.0" encoding="UTF-8" standalone="no"?>
<!-- Created with Inkscape (http://www.inkscape.org/) -->

<svg
   xmlns:dc="http://purl.org/dc/elements/1.1/"
   xmlns:cc="http://creativecommons.org/ns#"
   xmlns:rdf="http://www.w3.org/1999/02/22-rdf-syntax-ns#"
   xmlns:svg="http://www.w3.org/2000/svg"
   xmlns="http://www.w3.org/2000/svg"
   xmlns:sodipodi="http://sodipodi.sourceforge.net/DTD/sodipodi-0.dtd"
   xmlns:inkscape="http://www.inkscape.org/namespaces/inkscape"
   width="500px"
   height="500px"
   viewBox="0 0 500 500"
   version="1.1"
   id="SVGRoot"
   inkscape:version="0.92.4 (5da689c313, 2019-01-14)"
   sodipodi:docname="Logout2.svg">
  <defs
     id="defs35" />
  <sodipodi:namedview
     id="base"
     pagecolor="#ffffff"
     bordercolor="#666666"
     borderopacity="1.0"
     inkscape:pageopacity="0.0"
     inkscape:pageshadow="2"
     inkscape:zoom="0.82"
     inkscape:cx="222.30152"
     inkscape:cy="251.74257"
     inkscape:document-units="px"
     inkscape:current-layer="layer1"
     showgrid="true"
     inkscape:window-width="1280"
     inkscape:window-height="657"
     inkscape:window-x="-8"
     inkscape:window-y="-8"
     inkscape:window-maximized="1">
    <inkscape:grid
       type="xygrid"
       id="grid48" />
  </sodipodi:namedview>
  <metadata
     id="metadata38">
    <rdf:RDF>
      <cc:Work
         rdf:about="">
        <dc:format>image/svg+xml</dc:format>
        <dc:type
           rdf:resource="http://purl.org/dc/dcmitype/StillImage" />
        <dc:title />
      </cc:Work>
    </rdf:RDF>
  </metadata>
  <g
     inkscape:label="Layer 1"
     inkscape:groupmode="layer"
     id="layer1">
    <path
       style="fill:#888888;fill-opacity:1;stroke:#000000;stroke-opacity:0"
       d="M 10 90 C 4.46 90 0 94.46 0 100 L 0 150 L 0 190 L 0 315 L 0 350 L 0 405 C 0 410.54 4.46 415 10 415 L 290 415 C 295.54 415 300 410.54 300 405 L 300 350 L 300 315 L 300 280 L 150 280 C 133.38 280 120 266.79708 120 250.39648 L 120 249.60352 C 120 233.20292 133.38 220 150 220 L 300 220 L 300 190 L 300 150 L 300 100 C 300 94.46 295.54 90 290 90 L 10 90 z M 300 220 L 300 280 L 420 280 L 420 220 L 300 220 z "
       id="rect50" />
    <path
       sodipodi:type="star"
       style="fill:#888888;fill-opacity:1;stroke:#000000;stroke-opacity:0"
       id="path57"
       sodipodi:sides="3"
       sodipodi:cx="400"
       sodipodi:cy="250"
       sodipodi:r1="100"
       sodipodi:r2="60"
       sodipodi:arg1="0"
       sodipodi:arg2="1.0471976"
       inkscape:flatsided="true"
       inkscape:rounded="6.59195e-17"
       inkscape:randomized="0"
       d="m 500,250 -150,86.60254 0,-173.20508 z"
       inkscape:transform-center-x="-30" />
  </g>
</svg>
