<svg id="Layer_1" enable-background="new 0 0 512 512" height="512" viewBox="0 0 512 512" width="512" xmlns="http://www.w3.org/2000/svg"><g><path d="m77.264 331.203h-30.906c-25.603 0-46.358-20.755-46.358-46.358v-61.225c0-23.65 19.172-42.823 42.823-42.823h34.441z" fill="#f78e36"/><path d="m77.26 180.8v150.4h-30.9c-5.08 0-9.97-.82-14.55-2.33v-146.64c3.51-.93 7.2-1.43 11.01-1.43z" fill="#f86f1b"/><path d="m256 0c-77.308 0-140.201 62.894-140.201 140.201v86.277c0 4.142 3.357 7.5 7.5 7.5s7.5-3.358 7.5-7.5v-86.277c0-69.036 56.165-125.201 125.201-125.201s125.201 56.165 125.201 125.201v86.277c0 4.142 3.357 7.5 7.5 7.5s7.5-3.358 7.5-7.5v-86.277c0-77.307-62.893-140.201-140.201-140.201z" fill="#3a7190"/><path d="m256 512c-73.111 0-132.378-59.268-132.378-132.378v-166.375c0-73.11 59.268-132.378 132.378-132.378 73.11 0 132.378 59.268 132.378 132.378v166.375c0 73.11-59.267 132.378-132.378 132.378z" fill="#a9dbf5"/><path d="m436.703 331.203h28.939c25.603 0 46.358-20.755 46.358-46.358v-61.225c0-23.65-19.172-42.823-42.823-42.823h-32.474z" fill="#f78e36"/><path d="m469.177 180.797h-30c23.65 0 42.823 19.172 42.823 42.823v61.225c0 25.247-20.186 45.766-45.297 46.331v.027h28.939c25.603 0 46.358-20.755 46.358-46.358v-61.225c0-23.651-19.172-42.823-42.823-42.823z" fill="#f86f1b"/><path d="m404.875 360.048h28.818c9.111 0 16.496-7.386 16.496-16.496v-175.104c0-9.111-7.386-16.496-16.496-16.496h-28.818c-9.111 0-16.496 7.386-16.496 16.496v175.104c-.001 9.111 7.385 16.496 16.496 16.496z" fill="#43809f"/><path d="m433.693 151.952h-28.818c-.352 0-.697.031-1.044.053 8.622.541 15.453 7.685 15.453 16.444v175.104c0 8.758-6.831 15.903-15.453 16.444.347.022.691.053 1.044.053h28.818c9.111 0 16.496-7.386 16.496-16.496v-175.106c0-9.111-7.386-16.496-16.496-16.496z" fill="#3a7190"/><path d="m256 80.869c-5.228 0-10.383.313-15.453.903 65.828 7.655 116.926 63.593 116.926 131.475v166.374c0 67.882-51.097 123.821-116.926 131.475 5.07.59 10.224.903 15.453.903 73.11 0 132.378-59.268 132.378-132.378v-166.374c0-73.11-59.267-132.378-132.378-132.378z" fill="#88c3e0"/><path d="m324.616 300.298h-138.23c-19.639 0-35.56-15.921-35.56-35.56 0-19.639 15.921-35.56 35.56-35.56h138.231c19.639 0 35.56 15.921 35.56 35.56-.001 19.639-15.921 35.56-35.561 35.56z" fill="#a9dbf5"/><path d="m212.732 426.721h-45.688c-36.857 0-66.844-29.986-66.844-66.844 0-4.142-3.357-7.5-7.5-7.5s-7.5 3.358-7.5 7.5c0 45.128 36.715 81.843 81.844 81.843h45.688c4.143 0 7.5-3.358 7.5-7.5s-3.357-7.499-7.5-7.499z" fill="#ffc328"/><path d="m324.616 300.298h-138.23c-19.639 0-35.56-15.921-35.56-35.56 0-19.639 15.921-35.56 35.56-35.56h138.231c19.639 0 35.56 15.921 35.56 35.56-.001 19.639-15.921 35.56-35.561 35.56z" fill="#7be492"/><path d="m324.616 229.178h-30.905c19.639 0 35.56 15.921 35.56 35.56 0 19.639-15.921 35.56-35.56 35.56h30.905c19.639 0 35.56-15.921 35.56-35.56.001-19.64-15.92-35.56-35.56-35.56z" fill="#45d987"/><path d="m324.616 221.678h-138.23c-23.744 0-43.061 19.316-43.061 43.06s19.316 43.06 43.061 43.06h138.23c23.744 0 43.061-19.316 43.061-43.06s-19.317-43.06-43.061-43.06zm0 71.12h-138.23c-15.473 0-28.061-12.588-28.061-28.06s12.588-28.06 28.061-28.06h138.23c15.473 0 28.061 12.588 28.061 28.06s-12.588 28.06-28.061 28.06z" fill="#3a7190"/><path d="m440.415 237.779h12.362c9.103 0 16.483-7.38 16.483-16.483 0-9.103-7.38-16.483-16.483-16.483h-12.362c-9.103 0-16.483 7.38-16.483 16.483 0 9.103 7.38 16.483 16.483 16.483z" fill="#ffc328"/><path d="m440.415 300.298h12.362c9.103 0 16.483-7.38 16.483-16.483 0-9.103-7.38-16.483-16.483-16.483h-12.362c-9.103 0-16.483 7.38-16.483 16.483 0 9.103 7.38 16.483 16.483 16.483z" fill="#ffc328"/><path d="m278.664 454.825h-45.328c-11.379 0-20.604-9.225-20.604-20.604 0-11.379 9.225-20.604 20.604-20.604h45.328c11.379 0 20.604 9.225 20.604 20.604 0 11.379-9.225 20.604-20.604 20.604z" fill="#4380a0"/><path d="m278.664 413.618h-30.905c11.379 0 20.604 9.225 20.604 20.604 0 11.379-9.225 20.604-20.604 20.604h30.905c11.379 0 20.604-9.225 20.604-20.604 0-11.38-9.225-20.604-20.604-20.604z" fill="#3b7191"/><path d="m107.125 360.048h-28.818c-9.111 0-16.496-7.386-16.496-16.496v-175.104c0-9.111 7.386-16.496 16.496-16.496h28.818c9.111 0 16.496 7.386 16.496 16.496v175.104c.001 9.111-7.385 16.496-16.496 16.496z" fill="#43809f"/><path d="m107.125 151.952h-28.818c-.352 0-.697.031-1.044.053 8.622.541 15.453 7.685 15.453 16.444v175.104c0 8.758-6.831 15.903-15.453 16.444.347.022.691.053 1.044.053h28.818c9.111 0 16.496-7.386 16.496-16.496v-175.106c.001-9.111-7.385-16.496-16.496-16.496z" fill="#3a7190"/><g fill="#ffc328"><path d="m71.585 237.779h-12.362c-9.103 0-16.483-7.38-16.483-16.483 0-9.103 7.38-16.483 16.483-16.483h12.362c9.103 0 16.483 7.38 16.483 16.483 0 9.103-7.38 16.483-16.483 16.483z"/><path d="m71.585 300.298h-12.362c-9.103 0-16.483-7.38-16.483-16.483 0-9.103 7.38-16.483 16.483-16.483h12.362c9.103 0 16.483 7.38 16.483 16.483 0 9.103-7.38 16.483-16.483 16.483z"/></g></g></svg>