<?xml version="1.0" encoding="UTF-8" standalone="no"?>
<!-- Created with Inkscape (http://www.inkscape.org/) -->

<svg
   xmlns:dc="http://purl.org/dc/elements/1.1/"
   xmlns:cc="http://creativecommons.org/ns#"
   xmlns:rdf="http://www.w3.org/1999/02/22-rdf-syntax-ns#"
   xmlns:svg="http://www.w3.org/2000/svg"
   xmlns="http://www.w3.org/2000/svg"
   xmlns:sodipodi="http://sodipodi.sourceforge.net/DTD/sodipodi-0.dtd"
   xmlns:inkscape="http://www.inkscape.org/namespaces/inkscape"
   width="500mm"
   height="500mm"
   viewBox="0 0 500 500"
   version="1.1"
   id="svg8"
   inkscape:version="0.92.4 (5da689c313, 2019-01-14)"
   sodipodi:docname="sent.svg">
  <defs
     id="defs2" />
  <sodipodi:namedview
     id="base"
     pagecolor="#ffffff"
     bordercolor="#666666"
     borderopacity="1.0"
     inkscape:pageopacity="0.0"
     inkscape:pageshadow="2"
     inkscape:zoom="0.26"
     inkscape:cx="-228.14961"
     inkscape:cy="964.30229"
     inkscape:document-units="mm"
     inkscape:current-layer="layer1"
     showgrid="true"
     inkscape:window-width="1280"
     inkscape:window-height="657"
     inkscape:window-x="-8"
     inkscape:window-y="-8"
     inkscape:window-maximized="1">
    <inkscape:grid
       type="xygrid"
       id="grid10" />
  </sodipodi:namedview>
  <metadata
     id="metadata5">
    <rdf:RDF>
      <cc:Work
         rdf:about="">
        <dc:format>image/svg+xml</dc:format>
        <dc:type
           rdf:resource="http://purl.org/dc/dcmitype/StillImage" />
        <dc:title />
      </cc:Work>
    </rdf:RDF>
  </metadata>
  <g
     inkscape:label="Layer 1"
     inkscape:groupmode="layer"
     id="layer1"
     transform="translate(0,203)">
    <path
       style="fill:#999999;fill-opacity:1;stroke:#000000;stroke-width:0;stroke-miterlimit:4;stroke-dasharray:none;stroke-opacity:0.04419891"
       d="M 102.79305,-153.11483 C -8.7861313,-72.277769 -33.535203,82.627736 47.301858,194.20691 128.13893,305.7861 283.04443,330.53517 394.62361,249.69811 506.20279,168.86105 530.95186,13.955547 450.11479,-97.623642 369.27773,-209.20282 214.37223,-233.95189 102.79305,-153.11483 Z m 17.92693,196.114834 c 9.4961,-6.87975 22.67955,-4.773446 29.5593,4.722654 l 49.67329,68.563912 188.55074,-136.601539 c 9.4961,-6.87975 22.67954,-4.773446 29.5593,4.722654 6.87975,9.496101 4.77344,22.6795477 -4.72266,29.559298 L 207.64824,162.98684 c -1.78052,1.28995 -3.69039,2.26408 -5.66432,2.93272 -0.65797,0.22289 -1.32328,0.41169 -1.99299,0.56709 -0.66971,0.1554 -1.34391,0.2775 -2.02047,0.36621 -0.67656,0.0887 -1.35558,0.14401 -2.03413,0.16679 -0.33926,0.0114 -0.67844,0.0145 -1.01728,0.01 -0.6777,-0.01 -1.35371,-0.0522 -2.02607,-0.12685 -0.33631,-0.0373 -0.67143,-0.0828 -1.00548,-0.13623 -0.3338,-0.0533 -0.66661,-0.11417 -0.99755,-0.18342 -1.3e-4,-3e-5 -1.8e-4,-4e-4 -3.1e-4,-4.3e-4 -0.33107,-0.0693 -0.66007,-0.14629 -0.98766,-0.23143 -0.98295,-0.25546 -1.94876,-0.58225 -2.88948,-0.97861 -0.31352,-0.13208 -0.62453,-0.27149 -0.93216,-0.41905 -0.30775,-0.14761 -0.61195,-0.30299 -0.91318,-0.46597 -0.3011,-0.16292 -0.59863,-0.33339 -0.8926,-0.51156 -1.91097,-1.15819 -3.66465,-2.63751 -5.17778,-4.42517 -0.11638,-0.13749 -0.23124,-0.27658 -0.34473,-0.4177 -0.227,-0.28227 -0.44812,-0.57185 -0.66311,-0.8686 L 115.99733,72.559301 c -6.87975,-9.4961 -4.77345,-22.679547 4.72265,-29.559297 z"
       id="rect12"
       inkscape:connector-curvature="0" />
  </g>
</svg>
